<svg xmlns="http://www.w3.org/2000/svg" viewBox="0 0 48 48"><view id="primary" viewBox="0 0 48 48"/><polygon fill="#FFF" points="42.71 6.71 41.29 5.29 24 22.59 6.71 5.29 5.29 6.71 22.59 24 5.29 41.29 6.71 42.71 24 25.41 41.29 42.71 42.71 41.29 25.41 24 42.71 6.71"/><view id="primary-hover" viewBox="0 48 48 48"/><polygon fill="#000" points="42.71 6.71 41.29 5.29 24 22.59 6.71 5.29 5.29 6.71 22.59 24 5.29 41.29 6.71 42.71 24 25.41 41.29 42.71 42.71 41.29 25.41 24 42.71 6.71" transform="translate(0, 48)"/><view id="secondary" viewBox="0 96 48 48"/><polygon fill="#0797E1" points="42.71 6.71 41.29 5.29 24 22.59 6.71 5.29 5.29 6.71 22.59 24 5.29 41.29 6.71 42.71 24 25.41 41.29 42.71 42.71 41.29 25.41 24 42.71 6.71" transform="translate(0, 96)"/><view id="secondary-hover" viewBox="0 144 48 48"/><polygon fill="#5CBCE1" points="42.71 6.71 41.29 5.29 24 22.59 6.71 5.29 5.29 6.71 22.59 24 5.29 41.29 6.71 42.71 24 25.41 41.29 42.71 42.71 41.29 25.41 24 42.71 6.71" transform="translate(0, 144)"/><view id="tertiary" viewBox="0 192 48 48"/><polygon fill="#4A4A4A" points="42.71 6.71 41.29 5.29 24 22.59 6.71 5.29 5.29 6.71 22.59 24 5.29 41.29 6.71 42.71 24 25.41 41.29 42.71 42.71 41.29 25.41 24 42.71 6.71" transform="translate(0, 192)"/><view id="tertiary-hover" viewBox="0 240 48 48"/><polygon fill="#9A9A49" points="42.71 6.71 41.29 5.29 24 22.59 6.71 5.29 5.29 6.71 22.59 24 5.29 41.29 6.71 42.71 24 25.41 41.29 42.71 42.71 41.29 25.41 24 42.71 6.71" transform="translate(0, 240)"/><view id="error" viewBox="0 288 48 48"/><polygon fill="#ED1E45" points="42.71 6.71 41.29 5.29 24 22.59 6.71 5.29 5.29 6.71 22.59 24 5.29 41.29 6.71 42.71 24 25.41 41.29 42.71 42.71 41.29 25.41 24 42.71 6.71" transform="translate(0, 288)"/><view id="error-hover" viewBox="0 336 48 48"/><polygon fill="#F36580" points="42.71 6.71 41.29 5.29 24 22.59 6.71 5.29 5.29 6.71 22.59 24 5.29 41.29 6.71 42.71 24 25.41 41.29 42.71 42.71 41.29 25.41 24 42.71 6.71" transform="translate(0, 336)"/></svg>